<svg width="207" height="39" viewBox="0 0 207 39" fill="none" xmlns="http://www.w3.org/2000/svg">
<path d="M15.2568 4.03288C15.5275 4.02404 15.752 4.2408 15.752 4.51161C15.752 4.77026 15.5461 4.981 15.2879 4.99637C14.4244 5.04777 13.7471 5.16898 13.256 5.35999C12.712 5.55199 12.344 5.93599 12.152 6.51199C11.96 7.05599 11.864 7.91999 11.864 9.10399V33.488C11.864 34.48 11.928 35.216 12.056 35.696C12.216 36.176 12.504 36.496 12.92 36.656C13.368 36.816 14.024 36.896 14.888 36.896H17.24C18.328 36.896 19.352 36.64 20.312 36.128C21.272 35.616 22.136 34.896 22.904 33.968C23.672 33.008 24.312 31.872 24.824 30.56C25.2846 29.3796 25.6416 28.0827 25.895 26.6693C25.9442 26.3948 26.1811 26.192 26.46 26.192C26.7932 26.192 27.0546 26.4775 27.0328 26.81C26.9682 27.7967 26.936 28.9987 26.936 30.416C26.936 31.152 26.952 32.224 26.984 33.632C27.0364 35.9398 25.2028 37.9217 22.8944 37.9074C22.5211 37.9051 22.1403 37.904 21.752 37.904C19.704 37.872 17.88 37.856 16.28 37.856C15.48 37.856 14.456 37.856 13.208 37.856C11.96 37.856 10.616 37.872 9.17596 37.904C7.73596 37.904 6.27996 37.92 4.80796 37.952C3.52178 37.952 2.29668 37.9642 1.13265 37.9886C0.858107 37.9944 0.631958 37.7738 0.631958 37.4992C0.631958 37.2411 0.832765 37.0284 1.08985 37.0056C1.88798 36.9348 2.50335 36.8182 2.93596 36.656C3.44796 36.464 3.78396 36.08 3.94396 35.504C4.13596 34.928 4.23196 34.064 4.23196 32.912V9.10399C4.23196 7.91999 4.13596 7.05599 3.94396 6.51199C3.78396 5.93599 3.43196 5.55199 2.88796 5.35999C2.45871 5.17219 1.86076 5.05187 1.09413 4.99903C0.836833 4.98129 0.631958 4.77122 0.631958 4.51332C0.631958 4.24193 0.857581 4.02505 1.1288 4.03463C1.85857 4.06042 2.76496 4.0862 3.84796 4.11199C5.22396 4.14399 6.67996 4.15999 8.21596 4.15999C9.62396 4.15999 11 4.14399 12.344 4.11199C13.4779 4.08562 14.4488 4.05925 15.2568 4.03288Z" fill="black"/>
<path d="M50.1357 13.184C51.8214 13.0018 53.3997 14.2687 53.3997 15.9642V32.768C53.3997 34.208 53.6237 35.28 54.0717 35.984C54.4547 36.5585 55.095 36.8874 55.9925 36.9708C56.2562 36.9953 56.4717 37.2067 56.4717 37.4717C56.4717 37.7548 56.2277 37.976 55.9454 37.9536C55.1289 37.8885 54.3123 37.856 53.4957 37.856C52.1517 37.856 50.9037 37.904 49.7517 38C48.9499 38.0668 48.1791 38.1724 47.4394 38.3167C46.9533 38.4115 46.4877 38.0483 46.4877 37.553C46.4877 36.7431 45.1112 36.3394 44.4896 36.8587C44.1142 37.1722 43.7083 37.4406 43.2717 37.664C41.9277 38.336 40.4237 38.672 38.7597 38.672C37.4157 38.672 36.3277 38.496 35.4957 38.144C34.6637 37.792 34.0077 37.344 33.5277 36.8C32.9837 36.192 32.5997 35.392 32.3757 34.4C32.1517 33.408 32.0397 32.128 32.0397 30.56V18.416C32.0397 16.976 31.8157 15.92 31.3677 15.248C31.0106 14.6437 30.3707 14.2988 29.4478 14.2132C29.1836 14.1887 28.9677 13.9769 28.9677 13.7116C28.9677 13.4285 29.2112 13.2071 29.4934 13.2293C30.3321 13.2951 31.1489 13.328 31.9437 13.328C33.2877 13.328 34.5357 13.28 35.6877 13.184C37.3734 13.0018 38.9517 14.2687 38.9517 15.9642V32.528C38.9517 33.328 39.0157 34.032 39.1437 34.64C39.3037 35.248 39.5917 35.728 40.0077 36.08C40.4237 36.4 41.0317 36.56 41.8317 36.56C42.6957 36.56 43.4637 36.32 44.1357 35.84C44.8397 35.36 45.3997 34.704 45.8157 33.872C46.2637 33.008 46.4877 32.048 46.4877 30.992V18.416C46.4877 16.976 46.2637 15.92 45.8157 15.248C45.4586 14.6437 44.8187 14.2988 43.8958 14.2132C43.6316 14.1887 43.4157 13.9769 43.4157 13.7116C43.4157 13.4285 43.6592 13.2071 43.9414 13.2293C44.7801 13.2951 45.5969 13.328 46.3917 13.328C47.7357 13.328 48.9837 13.28 50.1357 13.184Z" fill="black"/>
<path d="M64.8451 0.799988C66.1891 0.799988 67.2451 1.13599 68.0131 1.80799C68.8131 2.44799 69.2131 3.34399 69.2131 4.49599C69.2131 5.64799 68.8131 6.55999 68.0131 7.23199C67.2451 7.87199 66.1891 8.19199 64.8451 8.19199C63.5011 8.19199 62.4291 7.87199 61.6291 7.23199C60.8611 6.55999 60.4771 5.64799 60.4771 4.49599C60.4771 3.34399 60.8611 2.44799 61.6291 1.80799C62.4291 1.13599 63.5011 0.799988 64.8451 0.799988ZM65.3251 13.184C67.0108 13.0018 68.5891 14.2687 68.5891 15.9642V33.536C68.5891 34.88 68.8131 35.792 69.2611 36.272C69.6679 36.6788 70.3047 36.9133 71.1714 36.9753C71.4413 36.9946 71.6611 37.2114 71.6611 37.482C71.6611 37.7633 71.425 37.987 71.1439 37.9749C70.5949 37.9513 69.8713 37.9276 68.9731 37.904C67.7571 37.84 66.5251 37.808 65.2771 37.808C64.0291 37.808 62.7651 37.84 61.4851 37.904C60.5122 37.9283 59.7241 37.9526 59.121 37.977C58.8401 37.9883 58.6051 37.7644 58.6051 37.4834C58.6051 37.212 58.8255 36.9947 59.0962 36.9751C59.9574 36.9128 60.5777 36.6785 60.9571 36.272C61.4371 35.792 61.6771 34.88 61.6771 33.536V18.416C61.6771 16.976 61.4531 15.92 61.0051 15.248C60.648 14.6437 60.008 14.2988 59.0851 14.2132C58.8209 14.1887 58.6051 13.9769 58.6051 13.7116C58.6051 13.4285 58.8486 13.2071 59.1307 13.2293C59.9695 13.2951 60.7862 13.328 61.5811 13.328C62.9251 13.328 64.1731 13.28 65.3251 13.184Z" fill="black"/>
<path d="M88.9617 13.136C91.1902 13.0535 92.7038 15.3815 91.7176 17.3816L83.0096 35.0414C82.5009 36.0729 83.2516 37.28 84.4017 37.28C85.6497 37.28 86.8177 37.024 87.9057 36.512C89.0257 35.968 89.9537 35.072 90.6897 33.824C91.3998 32.67 91.8501 31.1194 92.0404 29.172C92.067 28.8996 92.2935 28.688 92.5672 28.688C92.8558 28.688 93.0897 28.9222 93.09 29.2108C93.0922 31.312 93.1081 33.0577 93.1377 34.448C93.1812 36.4489 91.5378 38.1132 89.5369 38.065C89.2829 38.0589 89.0272 38.0532 88.7697 38.048C87.2017 38.016 85.6337 38 84.0657 38C82.4337 38 80.7537 38.016 79.0257 38.048C76.7972 38.1305 75.2836 35.8025 76.2699 33.8024L84.8929 16.3148C85.4407 15.204 84.6323 13.904 83.3937 13.904C82.1137 13.904 80.9297 14.176 79.8417 14.72C78.7857 15.232 77.9057 16.128 77.2017 17.408C76.5806 18.5615 76.1645 20.0977 75.9535 22.0166C75.9237 22.2875 75.6968 22.496 75.4242 22.496C75.1334 22.496 74.8977 22.2599 74.8974 21.9691C74.8952 19.8416 74.8793 18.0972 74.8497 16.736C74.8062 14.7344 76.449 13.0693 78.4505 13.1178C78.7208 13.1244 78.9925 13.1304 79.2657 13.136C80.8337 13.168 82.3857 13.184 83.9217 13.184C85.5857 13.184 87.2657 13.168 88.9617 13.136Z" fill="black"/>
<path d="M108.163 4.51295C108.163 4.24163 108.389 4.0247 108.66 4.03404C109.414 4.06003 110.336 4.08601 111.427 4.11199C112.771 4.14399 114.115 4.15999 115.459 4.15999C116.995 4.15999 118.483 4.14399 119.923 4.11199C121.363 4.07999 122.387 4.06399 122.995 4.06399C126.963 4.06399 129.923 4.76799 131.875 6.17599C133.859 7.58399 134.851 9.39199 134.851 11.6C134.851 12.72 134.515 13.856 133.843 15.008C133.171 16.16 132.131 17.184 130.723 18.08C129.325 18.97 127.516 19.6232 125.296 20.0396C125.27 20.0445 125.251 20.0671 125.251 20.0933C125.251 20.1219 125.273 20.1456 125.302 20.1478C128.286 20.3741 130.653 20.9169 132.403 21.776C134.163 22.64 135.427 23.68 136.195 24.896C136.963 26.112 137.347 27.376 137.347 28.688C137.347 30.704 136.819 32.4 135.763 33.776C134.707 35.152 133.187 36.208 131.203 36.944C129.219 37.648 126.851 38 124.099 38C123.331 38 122.227 37.984 120.787 37.952C119.347 37.888 117.603 37.856 115.555 37.856C114.147 37.856 112.771 37.872 111.427 37.904C110.343 37.904 109.426 37.9248 108.675 37.9664C108.399 37.9817 108.163 37.7635 108.163 37.4866C108.163 37.2356 108.359 37.0287 108.609 37.0067C109.413 36.936 110.032 36.8191 110.467 36.656C110.979 36.464 111.315 36.08 111.475 35.504C111.667 34.928 111.763 34.064 111.763 32.912V9.10399C111.763 7.91999 111.667 7.05599 111.475 6.51199C111.315 5.93599 110.963 5.55199 110.419 5.35999C109.99 5.17222 109.392 5.05191 108.626 4.99905C108.368 4.98129 108.163 4.77106 108.163 4.51295ZM122.371 4.97599C121.123 4.97599 120.307 5.24799 119.923 5.79199C119.571 6.33599 119.395 7.43999 119.395 9.10399V32.912C119.395 34.032 119.475 34.88 119.635 35.456C119.827 36.032 120.147 36.416 120.595 36.608C121.075 36.8 121.779 36.896 122.707 36.896C125.011 36.896 126.691 36.176 127.747 34.736C128.835 33.264 129.379 31.184 129.379 28.496C129.379 26.032 128.755 24.128 127.507 22.784C126.291 21.44 124.259 20.768 121.411 20.768H117.715C117.503 20.768 117.331 20.5961 117.331 20.384C117.331 20.1454 117.525 19.952 117.763 19.952H121.459C122.963 19.952 124.115 19.6 124.915 18.896C125.715 18.16 126.275 17.2 126.595 16.016C126.915 14.8 127.075 13.504 127.075 12.128C127.075 9.75999 126.707 7.98399 125.971 6.79999C125.235 5.58399 124.035 4.97599 122.371 4.97599Z" fill="black"/>
<path d="M156.351 12.512C157.375 12.512 158.207 12.736 158.847 13.184C159.487 13.6 159.951 14.144 160.239 14.816C160.559 15.488 160.719 16.192 160.719 16.928C160.719 18.112 160.367 19.088 159.663 19.856C158.991 20.592 158.095 20.96 156.975 20.96C155.855 20.96 154.975 20.688 154.335 20.144C153.727 19.568 153.423 18.816 153.423 17.888C153.423 16.992 153.615 16.256 153.999 15.68C154.166 15.4369 154.347 15.2091 154.544 14.9967C154.899 14.6147 154.743 14.0092 154.248 14.1726C154.212 14.1846 154.172 14.1948 154.135 14.2014C153.548 14.3041 152.991 14.557 152.463 14.96C151.919 15.344 151.455 15.84 151.071 16.448C150.687 17.024 150.383 17.664 150.159 18.368C149.935 19.04 149.823 19.696 149.823 20.336V33.056C149.823 34.592 150.191 35.632 150.927 36.176C151.609 36.6589 152.581 36.9274 153.842 36.9817C154.114 36.9934 154.335 37.2127 154.335 37.485C154.335 37.7657 154.102 37.9898 153.821 37.9796C153.129 37.9544 152.228 37.9292 151.119 37.904C149.711 37.84 148.239 37.808 146.703 37.808C145.423 37.808 144.127 37.84 142.815 37.904C141.806 37.9286 140.985 37.9532 140.355 37.9779C140.074 37.9888 139.839 37.7649 139.839 37.484C139.839 37.2123 140.06 36.9947 140.331 36.975C141.192 36.9127 141.812 36.6784 142.191 36.272C142.671 35.792 142.911 34.88 142.911 33.536V18.416C142.911 16.976 142.687 15.92 142.239 15.248C141.882 14.6437 141.242 14.2988 140.32 14.2132C140.055 14.1887 139.839 13.9769 139.839 13.7116C139.839 13.4285 140.083 13.2071 140.365 13.2293C141.204 13.2951 142.021 13.328 142.815 13.328C144.159 13.328 145.407 13.28 146.559 13.184C147.389 13.0943 148.171 12.9811 148.906 12.8443C149.378 12.7566 149.823 13.1125 149.823 13.5925V14.2988C149.823 14.9454 150.924 15.2465 151.359 14.768C151.999 14.064 152.735 13.52 153.567 13.136C154.399 12.72 155.327 12.512 156.351 12.512Z" fill="black"/>
<path d="M168.87 38.336C167.43 38.336 166.23 38.064 165.27 37.52C164.31 36.976 163.606 36.256 163.158 35.36C162.71 34.432 162.486 33.424 162.486 32.336C162.486 30.96 162.79 29.84 163.398 28.976C164.038 28.112 164.854 27.408 165.846 26.864C166.838 26.32 167.878 25.872 168.966 25.52C170.086 25.168 171.142 24.832 172.134 24.512C173.158 24.16 173.974 23.76 174.582 23.312C175.222 22.832 175.542 22.224 175.542 21.488V17.744C175.542 16.912 175.398 16.176 175.11 15.536C174.854 14.864 174.438 14.352 173.862 14C173.318 13.648 172.598 13.472 171.702 13.472C171.062 13.472 170.422 13.568 169.782 13.76C168.958 13.9658 169.14 14.9662 169.762 15.5437C169.948 15.7166 170.115 15.906 170.262 16.112C170.774 16.752 171.03 17.488 171.03 18.32C171.03 19.408 170.646 20.272 169.878 20.912C169.142 21.552 168.262 21.872 167.238 21.872C166.086 21.872 165.206 21.52 164.598 20.816C164.022 20.08 163.734 19.2 163.734 18.176C163.734 17.248 163.958 16.48 164.406 15.872C164.886 15.264 165.542 14.688 166.374 14.144C167.27 13.632 168.342 13.232 169.59 12.944C170.87 12.656 172.246 12.512 173.718 12.512C175.19 12.512 176.518 12.672 177.702 12.992C178.886 13.28 179.878 13.824 180.678 14.624C181.414 15.36 181.894 16.272 182.118 17.36C182.342 18.416 182.454 19.76 182.454 21.392V34.448C182.454 35.248 182.534 35.808 182.694 36.128C182.854 36.416 183.126 36.56 183.51 36.56C183.798 36.56 184.07 36.48 184.326 36.32C184.477 36.2357 184.633 36.1426 184.794 36.0406C185.037 35.8863 185.362 35.9561 185.508 36.2041C185.63 36.41 185.587 36.6748 185.396 36.8192C184.799 37.2721 184.122 37.6337 183.366 37.904C182.502 38.192 181.526 38.336 180.438 38.336C179.254 38.336 178.31 38.176 177.606 37.856C176.902 37.504 176.39 37.04 176.07 36.464C175.8 35.9243 174.78 35.6521 174.36 36.0856C173.898 36.5632 173.396 36.9774 172.854 37.328C171.766 38 170.438 38.336 168.87 38.336ZM172.278 35.264C172.918 35.264 173.494 35.12 174.006 34.832C174.376 34.6142 174.732 34.3074 175.072 33.9116C175.401 33.5291 175.542 33.0261 175.542 32.5214V25.2334C175.542 24.7341 174.741 24.4524 174.342 24.752C173.83 25.136 173.286 25.536 172.71 25.952C172.134 26.336 171.574 26.768 171.03 27.248C170.518 27.728 170.102 28.32 169.782 29.024C169.462 29.728 169.302 30.576 169.302 31.568C169.302 32.816 169.574 33.744 170.118 34.352C170.662 34.96 171.382 35.264 172.278 35.264Z" fill="black"/>
<path d="M202.305 13.136C204.534 13.0535 206.048 15.3815 205.061 17.3816L196.353 35.0414C195.845 36.0729 196.595 37.28 197.745 37.28C198.993 37.28 200.161 37.024 201.249 36.512C202.369 35.968 203.297 35.072 204.033 33.824C204.744 32.67 205.194 31.1194 205.384 29.172C205.411 28.8996 205.637 28.688 205.911 28.688C206.2 28.688 206.433 28.9222 206.434 29.2108C206.436 31.312 206.452 33.0577 206.481 34.448C206.525 36.4489 204.882 38.1132 202.881 38.065C202.627 38.0589 202.371 38.0532 202.113 38.048C200.545 38.016 198.977 38 197.409 38C195.777 38 194.097 38.016 192.369 38.048C190.141 38.1305 188.627 35.8025 189.614 33.8024L198.237 16.3148C198.784 15.204 197.976 13.904 196.737 13.904C195.457 13.904 194.273 14.176 193.185 14.72C192.129 15.232 191.249 16.128 190.545 17.408C189.924 18.5615 189.508 20.0977 189.297 22.0166C189.267 22.2875 189.041 22.496 188.768 22.496C188.477 22.496 188.241 22.2599 188.241 21.9692C188.239 19.8416 188.223 18.0972 188.193 16.736C188.15 14.7344 189.793 13.0693 191.794 13.1178C192.065 13.1244 192.336 13.1304 192.609 13.136C194.177 13.168 195.729 13.184 197.265 13.184C198.929 13.184 200.609 13.168 202.305 13.136Z" fill="black"/>
</svg>
